<svg xmlns="http://www.w3.org/2000/svg" width="980" height="620" viewBox="0 0 980 620">
<rect width="100%" height="100%" fill="#ffffff"/>
<text x="490.0" y="38" font-size="24" text-anchor="middle" font-family="Arial, sans-serif" font-weight="700" fill="#1f2937">Decoder Inversion Attack Exact Match</text>
<text x="490.0" y="60" font-size="14" text-anchor="middle" font-family="Arial, sans-serif" font-weight="400" fill="#6b7280">Baseline vs V6 UltraDrop</text>
<line x1="95" y1="525.0" x2="935" y2="525.0" stroke="#e5e7eb" stroke-width="1"/>
<text x="81" y="530.0" font-size="13" text-anchor="end" font-family="Arial, sans-serif" font-weight="400" fill="#4b5563">0.00</text>
<line x1="95" y1="412.5" x2="935" y2="412.5" stroke="#e5e7eb" stroke-width="1"/>
<text x="81" y="417.5" font-size="13" text-anchor="end" font-family="Arial, sans-serif" font-weight="400" fill="#4b5563">0.25</text>
<line x1="95" y1="300.0" x2="935" y2="300.0" stroke="#e5e7eb" stroke-width="1"/>
<text x="81" y="305.0" font-size="13" text-anchor="end" font-family="Arial, sans-serif" font-weight="400" fill="#4b5563">0.50</text>
<line x1="95" y1="187.5" x2="935" y2="187.5" stroke="#e5e7eb" stroke-width="1"/>
<text x="81" y="192.5" font-size="13" text-anchor="end" font-family="Arial, sans-serif" font-weight="400" fill="#4b5563">0.75</text>
<line x1="95" y1="75.0" x2="935" y2="75.0" stroke="#e5e7eb" stroke-width="1"/>
<text x="81" y="80.0" font-size="13" text-anchor="end" font-family="Arial, sans-serif" font-weight="400" fill="#4b5563">1.00</text>
<line x1="95" y1="75" x2="95" y2="525" stroke="#111827" stroke-width="1.5"/>
<line x1="95" y1="525" x2="935" y2="525" stroke="#111827" stroke-width="1.5"/>
<rect x="153.0" y="474.4" width="82" height="50.6" rx="5" fill="#2563eb"/>
<text x="194.0" y="464.375" font-size="13" text-anchor="middle" font-family="Arial, sans-serif" font-weight="700" fill="#2563eb">0.1125</text>
<rect x="235.0" y="525.0" width="82" height="0.0" rx="5" fill="#dc2626"/>
<text x="276.0" y="515.0" font-size="13" text-anchor="middle" font-family="Arial, sans-serif" font-weight="700" fill="#dc2626">0.0000</text>
<text x="235.0" y="555" font-size="15" text-anchor="middle" font-family="Arial, sans-serif" font-weight="400" fill="#1f2937">10</text>
<rect x="433.0" y="168.4" width="82" height="356.6" rx="5" fill="#2563eb"/>
<text x="474.0" y="158.375" font-size="13" text-anchor="middle" font-family="Arial, sans-serif" font-weight="700" fill="#2563eb">0.7925</text>
<rect x="515.0" y="493.5" width="82" height="31.5" rx="5" fill="#dc2626"/>
<text x="556.0" y="483.5" font-size="13" text-anchor="middle" font-family="Arial, sans-serif" font-weight="700" fill="#dc2626">0.0700</text>
<text x="515.0" y="555" font-size="15" text-anchor="middle" font-family="Arial, sans-serif" font-weight="400" fill="#1f2937">100</text>
<rect x="713.0" y="87.4" width="82" height="437.6" rx="5" fill="#2563eb"/>
<text x="754.0" y="77.37499999999999" font-size="13" text-anchor="middle" font-family="Arial, sans-serif" font-weight="700" fill="#2563eb">0.9725</text>
<rect x="795.0" y="297.8" width="82" height="227.2" rx="5" fill="#dc2626"/>
<text x="836.0" y="287.75" font-size="13" text-anchor="middle" font-family="Arial, sans-serif" font-weight="700" fill="#dc2626">0.5050</text>
<text x="795.0" y="555" font-size="15" text-anchor="middle" font-family="Arial, sans-serif" font-weight="400" fill="#1f2937">500</text>
<text x="490.0" y="598" font-size="16" text-anchor="middle" font-family="Arial, sans-serif" font-weight="700" fill="#1f2937">Chosen plaintext-latent pairs</text>
<text x="24" y="310.0" font-size="16" text-anchor="middle" font-family="Arial, sans-serif" font-weight="700" fill="#1f2937" transform="rotate(-90 24 310.0)">Exact match ratio</text>
<rect x="705" y="92" width="230" height="78" rx="10" fill="#f9fafb" stroke="#e5e7eb"/>
<rect x="729" y="110" width="24" height="18" fill="#2563eb"/>
<text x="769" y="125" font-size="15" text-anchor="start" font-family="Arial, sans-serif" font-weight="400" fill="#1f2937">Baseline</text>
<rect x="729" y="138" width="24" height="18" fill="#dc2626"/>
<text x="769" y="153" font-size="15" text-anchor="start" font-family="Arial, sans-serif" font-weight="400" fill="#1f2937">V6 UltraDrop</text>
</svg>